# xmcd
#
# Track frame offsets:
#	150
#	14277
#	34352
#	51411
#	71142
#	85152
#	100125
#	117657
#	132549
#	148914
#	167909
#	187724
#
# Disc length: 2749 seconds
# Revision: 1
# Processed by: cddbd v1.5.2PL0 Copyright (c) Steve Scherf et al.
# Submitted via: dBpowerAMP V12.0
#
DISCID=b30abb0c
DTITLE=Chatham County Line - Wildwood
DYEAR=2010
DGENRE=Country
TTITLE0=Wildwood
TTITLE1=Alone In New York
TTITLE2=Saturdays and Sundays
TTITLE3=Crop Comes In
TTITLE4=Porcelain Doll
TTITLE5=Out of the Running
TTITLE6=Heart Attack
TTITLE7=Ghost of Woody Guthrie
TTITLE8=Honeymoon
TTITLE9=Ringing In My Ears
TTITLE10=Blue Jay Way
TTITLE11=End of the Line
EXTD=
EXTT0=
EXTT1=
EXTT2=
EXTT3=
EXTT4=
EXTT5=
EXTT6=
EXTT7=
EXTT8=
EXTT9=
EXTT10=
EXTT11=
PLAYORDER=
